<svg width="236" height="13" viewBox="0 0 236 13" fill="none" xmlns="http://www.w3.org/2000/svg">
<path d="M9.212 8.684C8.22267 9.67333 7.028 10.168 5.628 10.168C4.228 10.168 3.03333 9.67333 2.044 8.684C1.05467 7.69467 0.56 6.5 0.56 5.1C0.56 3.7 1.05467 2.50533 2.044 1.516C3.03333 0.526667 4.228 0.0319998 5.628 0.0319998C7.028 0.0319998 8.22267 0.526667 9.212 1.516C10.2013 2.50533 10.696 3.7 10.696 5.1C10.696 6.5 10.2013 7.69467 9.212 8.684ZM2.338 8.418C3.25267 9.32333 4.34933 9.776 5.628 9.776C6.90667 9.776 7.99867 9.32333 8.904 8.418C9.81867 7.50333 10.276 6.39733 10.276 5.1C10.276 3.80267 9.81867 2.70133 8.904 1.796C7.99867 0.881333 6.90667 0.424 5.628 0.424C4.34933 0.424 3.25267 0.881333 2.338 1.796C1.43267 2.70133 0.98 3.80267 0.98 5.1C0.98 6.39733 1.43267 7.50333 2.338 8.418ZM5.67 7.788C4.90467 7.788 4.26067 7.52667 3.738 7.004C3.21533 6.48133 2.954 5.84667 2.954 5.1C2.954 4.35333 3.21533 3.71867 3.738 3.196C4.26067 2.67333 4.90467 2.412 5.67 2.412C6.16467 2.412 6.61267 2.52867 7.014 2.762C7.42467 2.99533 7.742 3.31267 7.966 3.714L7.196 4.162C7.06533 3.87267 6.86 3.65333 6.58 3.504C6.3 3.35467 5.99667 3.28 5.67 3.28C5.12867 3.28 4.69 3.462 4.354 3.826C4.02733 4.18067 3.864 4.60533 3.864 5.1C3.864 5.59467 4.02733 6.024 4.354 6.388C4.69 6.74267 5.12867 6.92 5.67 6.92C6.006 6.92 6.314 6.84533 6.594 6.696C6.874 6.53733 7.07933 6.31333 7.21 6.024L7.98 6.486C7.756 6.88733 7.43867 7.20467 7.028 7.438C6.61733 7.67133 6.16467 7.788 5.67 7.788ZM15.312 10V9.118L18.84 5.562C19.848 4.554 20.352 3.69067 20.352 2.972C20.352 2.34667 20.156 1.86133 19.764 1.516C19.3813 1.16133 18.9193 0.983999 18.378 0.983999C17.37 0.983999 16.6373 1.446 16.18 2.37L15.354 1.88C15.662 1.27333 16.082 0.815999 16.614 0.508C17.146 0.190666 17.734 0.0319998 18.378 0.0319998C19.162 0.0319998 19.848 0.298 20.436 0.83C21.0333 1.35267 21.332 2.06667 21.332 2.972C21.332 3.54133 21.1733 4.08733 20.856 4.61C20.5386 5.13267 20.0906 5.68333 19.512 6.262L16.712 9.048H21.542V10H15.312ZM29.1107 8.796C28.4667 9.71067 27.5567 10.168 26.3807 10.168C25.2047 10.168 24.29 9.71067 23.6367 8.796C22.9927 7.872 22.6707 6.64 22.6707 5.1C22.6707 3.56 22.9927 2.33267 23.6367 1.418C24.29 0.494 25.2047 0.0319998 26.3807 0.0319998C27.5567 0.0319998 28.4667 0.494 29.1107 1.418C29.764 2.33267 30.0907 3.56 30.0907 5.1C30.0907 6.64 29.764 7.872 29.1107 8.796ZM24.3647 8.138C24.85 8.85667 25.522 9.216 26.3807 9.216C27.2394 9.216 27.9067 8.85667 28.3827 8.138C28.868 7.41933 29.1107 6.40667 29.1107 5.1C29.1107 3.79333 28.868 2.78067 28.3827 2.062C27.9067 1.34333 27.2394 0.983999 26.3807 0.983999C25.522 0.983999 24.85 1.34333 24.3647 2.062C23.8887 2.78067 23.6507 3.79333 23.6507 5.1C23.6507 6.40667 23.8887 7.41933 24.3647 8.138ZM31.2123 10V9.118L34.7403 5.562C35.7483 4.554 36.2523 3.69067 36.2523 2.972C36.2523 2.34667 36.0563 1.86133 35.6643 1.516C35.2817 1.16133 34.8197 0.983999 34.2783 0.983999C33.2703 0.983999 32.5377 1.446 32.0803 2.37L31.2543 1.88C31.5623 1.27333 31.9823 0.815999 32.5143 0.508C33.0463 0.190666 33.6343 0.0319998 34.2783 0.0319998C35.0623 0.0319998 35.7483 0.298 36.3363 0.83C36.9337 1.35267 37.2323 2.06667 37.2323 2.972C37.2323 3.54133 37.0737 4.08733 36.7563 4.61C36.439 5.13267 35.991 5.68333 35.4123 6.262L32.6123 9.048H37.4423V10H31.2123ZM40.8078 0.199999H41.6478V10H40.6678V1.278L38.4698 1.936L38.2178 1.096L40.8078 0.199999ZM53.5456 0.199999V1.124H50.5356V10H49.5556V1.124H46.5456V0.199999H53.5456ZM59.4144 9.118C58.705 9.818 57.837 10.168 56.8104 10.168C55.7837 10.168 54.911 9.818 54.1924 9.118C53.483 8.40867 53.1284 7.536 53.1284 6.5C53.1284 5.464 53.483 4.596 54.1924 3.896C54.911 3.18667 55.7837 2.832 56.8104 2.832C57.837 2.832 58.705 3.18667 59.4144 3.896C60.133 4.596 60.4924 5.464 60.4924 6.5C60.4924 7.536 60.133 8.40867 59.4144 9.118ZM54.8504 8.474C55.3824 9.006 56.0357 9.272 56.8104 9.272C57.585 9.272 58.2384 9.006 58.7704 8.474C59.3024 7.93267 59.5684 7.27467 59.5684 6.5C59.5684 5.72533 59.3024 5.072 58.7704 4.54C58.2384 3.99867 57.585 3.728 56.8104 3.728C56.0357 3.728 55.3824 3.99867 54.8504 4.54C54.3184 5.072 54.0524 5.72533 54.0524 6.5C54.0524 7.27467 54.3184 7.93267 54.8504 8.474ZM65.3006 10.168C64.2459 10.168 63.3686 9.818 62.6686 9.118C61.9686 8.40867 61.6186 7.536 61.6186 6.5C61.6186 5.464 61.9686 4.596 62.6686 3.896C63.3686 3.18667 64.2459 2.832 65.3006 2.832C65.9913 2.832 66.6119 3 67.1626 3.336C67.7133 3.66267 68.1146 4.106 68.3666 4.666L67.6106 5.1C67.4239 4.68 67.1206 4.34867 66.7006 4.106C66.2899 3.854 65.8233 3.728 65.3006 3.728C64.5259 3.728 63.8726 3.99867 63.3406 4.54C62.8086 5.072 62.5426 5.72533 62.5426 6.5C62.5426 7.27467 62.8086 7.93267 63.3406 8.474C63.8726 9.006 64.5259 9.272 65.3006 9.272C65.8233 9.272 66.2899 9.15067 66.7006 8.908C67.1113 8.656 67.4333 8.32 67.6666 7.9L68.4366 8.348C68.1473 8.908 67.7226 9.35133 67.1626 9.678C66.6026 10.0047 65.9819 10.168 65.3006 10.168ZM73.0392 2.832C73.8885 2.832 74.5559 3.09333 75.0412 3.616C75.5359 4.12933 75.7832 4.82467 75.7832 5.702V10H74.8592V5.702C74.8592 5.07667 74.6912 4.59133 74.3552 4.246C74.0285 3.90067 73.5619 3.728 72.9552 3.728C72.2832 3.728 71.7372 3.94267 71.3172 4.372C70.8972 4.792 70.6872 5.44533 70.6872 6.332V10H69.7632V0.199999H70.6872V4.092C71.2099 3.252 71.9939 2.832 73.0392 2.832ZM83.5898 3H84.5138V10H83.5898V8.628C82.9458 9.65467 82.0032 10.168 80.7618 10.168C79.7632 10.168 78.9092 9.81333 78.1998 9.104C77.4998 8.39467 77.1498 7.52667 77.1498 6.5C77.1498 5.47333 77.4998 4.60533 78.1998 3.896C78.9092 3.18667 79.7632 2.832 80.7618 2.832C82.0032 2.832 82.9458 3.34533 83.5898 4.372V3ZM78.8718 8.474C79.4038 9.006 80.0572 9.272 80.8318 9.272C81.6065 9.272 82.2598 9.006 82.7918 8.474C83.3238 7.93267 83.5898 7.27467 83.5898 6.5C83.5898 5.72533 83.3238 5.072 82.7918 4.54C82.2598 3.99867 81.6065 3.728 80.8318 3.728C80.0572 3.728 79.4038 3.99867 78.8718 4.54C78.3398 5.072 78.0738 5.72533 78.0738 6.5C78.0738 7.27467 78.3398 7.93267 78.8718 8.474ZM87.6462 9.916C87.4969 10.0653 87.3149 10.14 87.1002 10.14C86.8856 10.14 86.7036 10.0653 86.5542 9.916C86.4049 9.76667 86.3302 9.58467 86.3302 9.37C86.3302 9.15533 86.4049 8.97333 86.5542 8.824C86.7036 8.67467 86.8856 8.6 87.1002 8.6C87.3149 8.6 87.4969 8.67467 87.6462 8.824C87.7956 8.97333 87.8702 9.15533 87.8702 9.37C87.8702 9.58467 87.7956 9.76667 87.6462 9.916ZM98.7688 4.918C99.2448 5.12333 99.6228 5.436 99.9028 5.856C100.192 6.26667 100.337 6.738 100.337 7.27C100.337 8.026 100.071 8.67 99.5388 9.202C99.0068 9.734 98.3628 10 97.6068 10H93.3368V0.199999H97.2848C98.0128 0.199999 98.6335 0.461333 99.1468 0.983999C99.6601 1.49733 99.9168 2.11333 99.9168 2.832C99.9168 3.74667 99.5341 4.442 98.7688 4.918ZM97.2848 1.124H94.3168V4.54H97.2848C97.7421 4.54 98.1295 4.37667 98.4468 4.05C98.7735 3.714 98.9368 3.308 98.9368 2.832C98.9368 2.36533 98.7735 1.964 98.4468 1.628C98.1295 1.292 97.7421 1.124 97.2848 1.124ZM97.6068 9.076C98.0921 9.076 98.5028 8.90333 98.8388 8.558C99.1841 8.20333 99.3568 7.774 99.3568 7.27C99.3568 6.77533 99.1841 6.35067 98.8388 5.996C98.5028 5.64133 98.0921 5.464 97.6068 5.464H94.3168V9.076H97.6068ZM105.14 10.168C104.086 10.168 103.208 9.818 102.508 9.118C101.808 8.40867 101.458 7.536 101.458 6.5C101.458 5.464 101.808 4.596 102.508 3.896C103.208 3.18667 104.086 2.832 105.14 2.832C105.831 2.832 106.452 3 107.002 3.336C107.553 3.66267 107.954 4.106 108.206 4.666L107.45 5.1C107.264 4.68 106.96 4.34867 106.54 4.106C106.13 3.854 105.663 3.728 105.14 3.728C104.366 3.728 103.712 3.99867 103.18 4.54C102.648 5.072 102.382 5.72533 102.382 6.5C102.382 7.27467 102.648 7.93267 103.18 8.474C103.712 9.006 104.366 9.272 105.14 9.272C105.663 9.272 106.13 9.15067 106.54 8.908C106.951 8.656 107.273 8.32 107.506 7.9L108.276 8.348C107.987 8.908 107.562 9.35133 107.002 9.678C106.442 10.0047 105.822 10.168 105.14 10.168ZM112.769 2.832C113.805 2.832 114.64 3.20067 115.275 3.938C115.919 4.666 116.241 5.52933 116.241 6.528C116.241 6.63067 116.231 6.77533 116.213 6.962H110.067C110.16 7.67133 110.459 8.236 110.963 8.656C111.476 9.06667 112.106 9.272 112.853 9.272C113.385 9.272 113.842 9.16467 114.225 8.95C114.617 8.726 114.911 8.43667 115.107 8.082L115.919 8.558C115.611 9.05267 115.191 9.44467 114.659 9.734C114.127 10.0233 113.52 10.168 112.839 10.168C111.737 10.168 110.841 9.82267 110.151 9.132C109.46 8.44133 109.115 7.564 109.115 6.5C109.115 5.45467 109.455 4.582 110.137 3.882C110.818 3.182 111.695 2.832 112.769 2.832ZM112.769 3.728C112.041 3.728 111.429 3.94733 110.935 4.386C110.449 4.81533 110.16 5.37533 110.067 6.066H115.289C115.195 5.32867 114.911 4.75467 114.435 4.344C113.959 3.93333 113.403 3.728 112.769 3.728ZM127.09 3V10H126.166V3.896H122.134V10H121.21V3H127.09ZM132.796 2.832C133.795 2.832 134.644 3.18667 135.344 3.896C136.054 4.60533 136.408 5.47333 136.408 6.5C136.408 7.52667 136.054 8.39467 135.344 9.104C134.644 9.81333 133.795 10.168 132.796 10.168C131.555 10.168 130.612 9.65467 129.968 8.628V12.8H129.044V3H129.968V4.372C130.612 3.34533 131.555 2.832 132.796 2.832ZM130.766 8.474C131.298 9.006 131.952 9.272 132.726 9.272C133.501 9.272 134.154 9.006 134.686 8.474C135.218 7.93267 135.484 7.27467 135.484 6.5C135.484 5.72533 135.218 5.072 134.686 4.54C134.154 3.99867 133.501 3.728 132.726 3.728C131.952 3.728 131.298 3.99867 130.766 4.54C130.234 5.072 129.968 5.72533 129.968 6.5C129.968 7.27467 130.234 7.93267 130.766 8.474ZM143.965 3H144.889V10H143.965V8.628C143.321 9.65467 142.378 10.168 141.137 10.168C140.138 10.168 139.284 9.81333 138.575 9.104C137.875 8.39467 137.525 7.52667 137.525 6.5C137.525 5.47333 137.875 4.60533 138.575 3.896C139.284 3.18667 140.138 2.832 141.137 2.832C142.378 2.832 143.321 3.34533 143.965 4.372V3ZM139.247 8.474C139.779 9.006 140.432 9.272 141.207 9.272C141.982 9.272 142.635 9.006 143.167 8.474C143.699 7.93267 143.965 7.27467 143.965 6.5C143.965 5.72533 143.699 5.072 143.167 4.54C142.635 3.99867 141.982 3.728 141.207 3.728C140.432 3.728 139.779 3.99867 139.247 4.54C138.715 5.072 138.449 5.72533 138.449 6.5C138.449 7.27467 138.715 7.93267 139.247 8.474ZM151.297 6.402C152.063 6.682 152.445 7.228 152.445 8.04C152.445 8.60933 152.254 9.08067 151.871 9.454C151.498 9.818 150.957 10 150.247 10H146.845V3H149.967C150.649 3 151.176 3.17733 151.549 3.532C151.923 3.87733 152.109 4.32533 152.109 4.876C152.109 5.576 151.839 6.08467 151.297 6.402ZM149.967 3.896H147.769V6.024H149.967C150.779 6.024 151.185 5.66 151.185 4.932C151.185 4.60533 151.078 4.35333 150.863 4.176C150.658 3.98933 150.359 3.896 149.967 3.896ZM150.247 9.104C150.658 9.104 150.971 9.006 151.185 8.81C151.409 8.614 151.521 8.33867 151.521 7.984C151.521 7.65733 151.409 7.40067 151.185 7.214C150.971 7.018 150.658 6.92 150.247 6.92H147.769V9.104H150.247ZM159.865 3H160.789V10H159.865V8.628C159.221 9.65467 158.279 10.168 157.037 10.168C156.039 10.168 155.185 9.81333 154.475 9.104C153.775 8.39467 153.425 7.52667 153.425 6.5C153.425 5.47333 153.775 4.60533 154.475 3.896C155.185 3.18667 156.039 2.832 157.037 2.832C158.279 2.832 159.221 3.34533 159.865 4.372V3ZM155.147 8.474C155.679 9.006 156.333 9.272 157.107 9.272C157.882 9.272 158.535 9.006 159.067 8.474C159.599 7.93267 159.865 7.27467 159.865 6.5C159.865 5.72533 159.599 5.072 159.067 4.54C158.535 3.99867 157.882 3.728 157.107 3.728C156.333 3.728 155.679 3.99867 155.147 4.54C154.615 5.072 154.349 5.72533 154.349 6.5C154.349 7.27467 154.615 7.93267 155.147 8.474ZM169.858 6.402C170.67 6.71 171.076 7.27 171.076 8.082C171.076 8.66067 170.847 9.15533 170.39 9.566C169.942 9.96733 169.298 10.168 168.458 10.168C167.048 10.168 166.124 9.608 165.686 8.488L166.47 8.026C166.759 8.85667 167.422 9.272 168.458 9.272C168.999 9.272 169.414 9.15533 169.704 8.922C170.002 8.68867 170.152 8.39 170.152 8.026C170.152 7.69933 170.03 7.43333 169.788 7.228C169.545 7.02267 169.218 6.92 168.808 6.92H167.786V6.024H168.528C168.929 6.024 169.242 5.926 169.466 5.73C169.699 5.52467 169.816 5.24467 169.816 4.89C169.816 4.554 169.68 4.27867 169.41 4.064C169.139 3.84 168.775 3.728 168.318 3.728C167.44 3.728 166.857 4.078 166.568 4.778L165.798 4.33C166.264 3.33133 167.104 2.832 168.318 2.832C169.055 2.832 169.643 3.028 170.082 3.42C170.52 3.80267 170.74 4.274 170.74 4.834C170.74 5.55267 170.446 6.07533 169.858 6.402ZM178.5 3H179.424V10H178.5V8.628C177.856 9.65467 176.913 10.168 175.672 10.168C174.673 10.168 173.819 9.81333 173.11 9.104C172.41 8.39467 172.06 7.52667 172.06 6.5C172.06 5.47333 172.41 4.60533 173.11 3.896C173.819 3.18667 174.673 2.832 175.672 2.832C176.913 2.832 177.856 3.34533 178.5 4.372V3ZM173.782 8.474C174.314 9.006 174.967 9.272 175.742 9.272C176.517 9.272 177.17 9.006 177.702 8.474C178.234 7.93267 178.5 7.27467 178.5 6.5C178.5 5.72533 178.234 5.072 177.702 4.54C177.17 3.99867 176.517 3.728 175.742 3.728C174.967 3.728 174.314 3.99867 173.782 4.54C173.25 5.072 172.984 5.72533 172.984 6.5C172.984 7.27467 173.25 7.93267 173.782 8.474ZM190.76 9.104H191.74V11.876H190.816V10H181.38V3H182.304V9.104H185.608V3H186.532V9.104H189.836V3H190.76V9.104ZM198.234 3H199.018V10H198.094V4.61L193.922 10H193.138V3H194.062V8.39L198.234 3ZM210.352 9.104H211.332V11.876H210.408V10H200.972V3H201.896V9.104H205.2V3H206.124V9.104H209.428V3H210.352V9.104ZM215.691 2.832C216.727 2.832 217.562 3.20067 218.197 3.938C218.841 4.666 219.163 5.52933 219.163 6.528C219.163 6.63067 219.153 6.77533 219.135 6.962H212.989C213.082 7.67133 213.381 8.236 213.885 8.656C214.398 9.06667 215.028 9.272 215.775 9.272C216.307 9.272 216.764 9.16467 217.147 8.95C217.539 8.726 217.833 8.43667 218.029 8.082L218.841 8.558C218.533 9.05267 218.113 9.44467 217.581 9.734C217.049 10.0233 216.442 10.168 215.761 10.168C214.659 10.168 213.763 9.82267 213.073 9.132C212.382 8.44133 212.037 7.564 212.037 6.5C212.037 5.45467 212.377 4.582 213.059 3.882C213.74 3.182 214.617 2.832 215.691 2.832ZM215.691 3.728C214.963 3.728 214.351 3.94733 213.857 4.386C213.371 4.81533 213.082 5.37533 212.989 6.066H218.211C218.117 5.32867 217.833 4.75467 217.357 4.344C216.881 3.93333 216.325 3.728 215.691 3.728ZM225.588 3H226.512V10H225.588V6.948H221.556V10H220.632V3H221.556V6.052H225.588V3ZM231.308 5.66C231.962 5.66 232.512 5.86533 232.96 6.276C233.418 6.67733 233.646 7.19533 233.646 7.83C233.646 8.46467 233.418 8.98733 232.96 9.398C232.512 9.79933 231.962 10 231.308 10H228.466V3H229.39V5.66H231.308ZM234.626 3H235.55V10H234.626V3ZM231.308 9.104C231.7 9.104 232.032 8.98733 232.302 8.754C232.582 8.52067 232.722 8.21267 232.722 7.83C232.722 7.44733 232.582 7.13933 232.302 6.906C232.032 6.67267 231.7 6.556 231.308 6.556H229.39V9.104H231.308Z" fill="#D9DBE1"/>
</svg>
